<svg xmlns="http://www.w3.org/2000/svg" version="1.1" xmlns:xlink="http://www.w3.org/1999/xlink" xmlns:svgjs="http://svgjs.com/svgjs" width="560" height="1440" preserveAspectRatio="none" viewBox="0 0 560 1440"><g mask="url(&quot;#SvgjsMask1040&quot;)" fill="none"><path d="M240 110L445 -95" stroke-width="10" stroke="url(#SvgjsLinearGradient1041)" stroke-linecap="round" class="TopRight"></path><path d="M144 1213L467 890" stroke-width="8" stroke="url(#SvgjsLinearGradient1042)" stroke-linecap="round" class="BottomLeft"></path><path d="M162 996L530 628" stroke-width="6" stroke="url(#SvgjsLinearGradient1042)" stroke-linecap="round" class="BottomLeft"></path><path d="M413 995L234 1174" stroke-width="10" stroke="url(#SvgjsLinearGradient1041)" stroke-linecap="round" class="TopRight"></path><path d="M6 1177L-260 1443" stroke-width="10" stroke="url(#SvgjsLinearGradient1041)" stroke-linecap="round" class="TopRight"></path><path d="M524 1135L681 978" stroke-width="10" stroke="url(#SvgjsLinearGradient1041)" stroke-linecap="round" class="TopRight"></path><path d="M230 902L502 630" stroke-width="6" stroke="url(#SvgjsLinearGradient1041)" stroke-linecap="round" class="TopRight"></path><path d="M129 971L427 673" stroke-width="8" stroke="url(#SvgjsLinearGradient1041)" stroke-linecap="round" class="TopRight"></path><path d="M160 740L-25 925" stroke-width="10" stroke="url(#SvgjsLinearGradient1041)" stroke-linecap="round" class="TopRight"></path><path d="M228 109L49 288" stroke-width="8" stroke="url(#SvgjsLinearGradient1041)" stroke-linecap="round" class="TopRight"></path><path d="M142 682L-190 1014" stroke-width="10" stroke="url(#SvgjsLinearGradient1042)" stroke-linecap="round" class="BottomLeft"></path><path d="M316 706L547 475" stroke-width="10" stroke="url(#SvgjsLinearGradient1041)" stroke-linecap="round" class="TopRight"></path><path d="M192 609L-198 999" stroke-width="10" stroke="url(#SvgjsLinearGradient1042)" stroke-linecap="round" class="BottomLeft"></path><path d="M263 1105L-66 1434" stroke-width="8" stroke="url(#SvgjsLinearGradient1042)" stroke-linecap="round" class="BottomLeft"></path><path d="M115 401L-120 636" stroke-width="10" stroke="url(#SvgjsLinearGradient1042)" stroke-linecap="round" class="BottomLeft"></path><path d="M25 882L303 604" stroke-width="8" stroke="url(#SvgjsLinearGradient1041)" stroke-linecap="round" class="TopRight"></path><path d="M168 1186L-248 1602" stroke-width="8" stroke="url(#SvgjsLinearGradient1041)" stroke-linecap="round" class="TopRight"></path><path d="M344 87L505 -74" stroke-width="6" stroke="url(#SvgjsLinearGradient1041)" stroke-linecap="round" class="TopRight"></path><path d="M325 2L150 177" stroke-width="10" stroke="url(#SvgjsLinearGradient1042)" stroke-linecap="round" class="BottomLeft"></path><path d="M178 287L-14 479" stroke-width="8" stroke="url(#SvgjsLinearGradient1042)" stroke-linecap="round" class="BottomLeft"></path><path d="M388 176L193 371" stroke-width="6" stroke="url(#SvgjsLinearGradient1041)" stroke-linecap="round" class="TopRight"></path><path d="M95 397L316 176" stroke-width="6" stroke="url(#SvgjsLinearGradient1041)" stroke-linecap="round" class="TopRight"></path><path d="M30 502L-150 682" stroke-width="10" stroke="url(#SvgjsLinearGradient1041)" stroke-linecap="round" class="TopRight"></path><path d="M190 1095L-135 1420" stroke-width="8" stroke="url(#SvgjsLinearGradient1041)" stroke-linecap="round" class="TopRight"></path><path d="M85 111L490 -294" stroke-width="10" stroke="url(#SvgjsLinearGradient1041)" stroke-linecap="round" class="TopRight"></path><path d="M535 452L745 242" stroke-width="10" stroke="url(#SvgjsLinearGradient1042)" stroke-linecap="round" class="BottomLeft"></path><path d="M262 1016L573 705" stroke-width="6" stroke="url(#SvgjsLinearGradient1041)" stroke-linecap="round" class="TopRight"></path><path d="M38 893L347 584" stroke-width="10" stroke="url(#SvgjsLinearGradient1042)" stroke-linecap="round" class="BottomLeft"></path><path d="M491 403L785 109" stroke-width="6" stroke="url(#SvgjsLinearGradient1042)" stroke-linecap="round" class="BottomLeft"></path><path d="M513 194L763 -56" stroke-width="10" stroke="url(#SvgjsLinearGradient1041)" stroke-linecap="round" class="TopRight"></path><path d="M399 512L792 119" stroke-width="6" stroke="url(#SvgjsLinearGradient1041)" stroke-linecap="round" class="TopRight"></path><path d="M266 249L14 501" stroke-width="10" stroke="url(#SvgjsLinearGradient1042)" stroke-linecap="round" class="BottomLeft"></path><path d="M190 258L387 61" stroke-width="10" stroke="url(#SvgjsLinearGradient1042)" stroke-linecap="round" class="BottomLeft"></path><path d="M546 19L901 -336" stroke-width="6" stroke="url(#SvgjsLinearGradient1041)" stroke-linecap="round" class="TopRight"></path><path d="M520 804L899 425" stroke-width="6" stroke="url(#SvgjsLinearGradient1042)" stroke-linecap="round" class="BottomLeft"></path><path d="M514 319L855 -22" stroke-width="8" stroke="url(#SvgjsLinearGradient1042)" stroke-linecap="round" class="BottomLeft"></path><path d="M7 535L-367 909" stroke-width="6" stroke="url(#SvgjsLinearGradient1041)" stroke-linecap="round" class="TopRight"></path><path d="M187 579L355 411" stroke-width="8" stroke="url(#SvgjsLinearGradient1042)" stroke-linecap="round" class="BottomLeft"></path><path d="M206 55L396 -135" stroke-width="8" stroke="url(#SvgjsLinearGradient1042)" stroke-linecap="round" class="BottomLeft"></path></g><defs><mask id="SvgjsMask1040"><rect width="560" height="1440" fill="#ffffff"></rect></mask><linearGradient x1="0%" y1="100%" x2="100%" y2="0%" id="SvgjsLinearGradient1041"><stop stop-color="rgba(0, 21, 249, 0)" offset="0"></stop><stop stop-color="rgba(0, 21, 249, 1)" offset="1"></stop></linearGradient><linearGradient x1="100%" y1="0%" x2="0%" y2="100%" id="SvgjsLinearGradient1042"><stop stop-color="rgba(0, 21, 249, 0)" offset="0"></stop><stop stop-color="rgba(0, 21, 249, 1)" offset="1"></stop></linearGradient></defs></svg>